<svg xmlns="http://www.w3.org/2000/svg" xmlns:xlink="http://www.w3.org/1999/xlink" viewBox="0 0 77.27 75.88"><defs><style>.cls-1{fill:none;}.cls-2{opacity:0.74;}.cls-3{isolation:isolate;}.cls-4{clip-path:url(#clip-path);}.cls-5{fill:#0b1c5f;}.cls-6{fill:#0d1e62;}.cls-7{fill:#0a1a5d;}.cls-8{clip-path:url(#clip-path-2);}.cls-9{fill:#0c1d60;}.cls-10{clip-path:url(#clip-path-3);}.cls-11{fill:#0e2064;}.cls-12{fill:#0f2167;}.cls-13{fill:#112369;}.cls-14{fill:#12256c;}.cls-15{fill:#13266e;}.cls-16{fill:#142870;}.cls-17{fill:#152a73;}.cls-18{clip-path:url(#clip-path-4);}.cls-19{fill:#858585;}.cls-20{clip-path:url(#clip-path-5);}.cls-21{clip-path:url(#clip-path-6);}.cls-22{clip-path:url(#clip-path-7);}.cls-23{fill:#adadad;}.cls-24{fill:#a8a8a8;}.cls-25{fill:#a3a3a3;}.cls-26{fill:#9e9e9e;}.cls-27{fill:#999;}.cls-28{fill:#949494;}.cls-29{fill:#8f8f8f;}.cls-30{fill:#8a8a8a;}.cls-31{clip-path:url(#clip-path-8);}.cls-32{fill:gray;}.cls-33{clip-path:url(#clip-path-9);}.cls-34{clip-path:url(#clip-path-10);}.cls-35{fill:#878787;}.cls-36{clip-path:url(#clip-path-11);}.cls-37{clip-path:url(#clip-path-12);}.cls-38{fill:#cacaca;}.cls-39{fill:#1a3281;}.cls-40{clip-path:url(#clip-path-13);}.cls-41{fill:#36489e;}.cls-42{font-size:34.96px;fill:#1d64b0;font-family:MyriadPro-Regular, Myriad Pro;}</style><clipPath id="clip-path" transform="translate(0)"><path class="cls-1" d="M57.26,72.18l-2.37-4.66a7.11,7.11,0,0,0,2.65-.76,7.25,7.25,0,0,0,3.32-3.48l2.37,4.66a7.25,7.25,0,0,1-6,4.24Z"/></clipPath><clipPath id="clip-path-2" transform="translate(0)"><path class="cls-1" d="M21.62,71.76,19.24,67.1a7.25,7.25,0,0,0,6.62,3.1l2.37,4.66A7.24,7.24,0,0,1,21.62,71.76Z"/></clipPath><clipPath id="clip-path-3" transform="translate(0)"><path class="cls-1" d="M73.12,29.63l2.37,4.66a7.22,7.22,0,0,1,.14,6.24l-2.37-4.66A7.22,7.22,0,0,0,73.12,29.63Z"/></clipPath><clipPath id="clip-path-4" transform="translate(0)"><path class="cls-1" d="M72.64,28.83a6.52,6.52,0,0,1,.48.8l2.37,4.66a6.63,6.63,0,0,0-.48-.81Z"/></clipPath><clipPath id="clip-path-5" transform="translate(0)"><path class="cls-1" d="M74,29.18l2.37,4.65a8,8,0,0,0-.55-.92l-2.37-4.65A7.71,7.71,0,0,1,74,29.18Z"/></clipPath><clipPath id="clip-path-6" transform="translate(0)"><path class="cls-1" d="M4.16,46.27,1.78,41.61a7.83,7.83,0,0,0,.47.79l2.37,4.66A7,7,0,0,1,4.16,46.27Z"/></clipPath><clipPath id="clip-path-7" transform="translate(0)"><path class="cls-1" d="M4.16,46.27,1.78,41.61a7.3,7.3,0,0,1-.15-6.26L4,40A7.27,7.27,0,0,0,4.16,46.27Z"/></clipPath><clipPath id="clip-path-8" transform="translate(0)"><path class="cls-1" d="M3.27,46.72.89,42.07A8.23,8.23,0,0,1,.73,35L3.1,39.61A8.24,8.24,0,0,0,3.27,46.72Z"/></clipPath><clipPath id="clip-path-9" transform="translate(0)"><path class="cls-1" d="M51.4,5.68,49,1a7.22,7.22,0,0,1,6.62,3.09L58,8.78A7.24,7.24,0,0,0,51.4,5.68Z"/></clipPath><clipPath id="clip-path-10" transform="translate(0)"><path class="cls-1" d="M51.32,4.69,49,0a8.27,8.27,0,0,1,7.53,3.52l2.37,4.66A8.24,8.24,0,0,0,51.32,4.69Z"/></clipPath><clipPath id="clip-path-11" transform="translate(0)"><path class="cls-1" d="M16.41,12.6,14,7.94a7.26,7.26,0,0,1,3.33-3.48l2.37,4.66A7.31,7.31,0,0,0,16.41,12.6Z"/></clipPath><clipPath id="clip-path-12" transform="translate(0)"><path class="cls-1" d="M19.74,9.12,17.37,4.46A7.19,7.19,0,0,1,20,3.7l2.37,4.66A7.19,7.19,0,0,0,19.74,9.12Z"/></clipPath><clipPath id="clip-path-13" transform="translate(0)"><path class="cls-1" d="M15.5,12.19,13.12,7.54a8.29,8.29,0,0,1,3.79-4,8,8,0,0,1,3-.87l2.37,4.66a8.11,8.11,0,0,0-3,.86A8.28,8.28,0,0,0,15.5,12.19Z"/></clipPath></defs><g id="Layer_2" data-name="Layer 2"><g id="Layer_1-2" data-name="Layer 1"><g class="cls-2"><g class="cls-3"><g class="cls-3"><g class="cls-4"><g class="cls-3"><path class="cls-5" d="M57.26,72.18l-2.37-4.66a7.11,7.11,0,0,0,2.65-.76,7.27,7.27,0,0,0,3.27-3.37l2.37,4.66a7.25,7.25,0,0,1-5.92,4.13" transform="translate(0)"/><path class="cls-6" d="M63.18,68.05l-2.37-4.66a.54.54,0,0,1,0-.11l2.37,4.66a1.17,1.17,0,0,0,0,.11" transform="translate(0)"/></g></g></g><polygon class="cls-7" points="28.23 74.86 25.86 70.2 54.89 67.53 57.26 72.18 28.23 74.86"/><g class="cls-3"><g class="cls-8"><g class="cls-3"><path class="cls-5" d="M21.62,71.76,19.24,67.1a7.25,7.25,0,0,0,6.62,3.1l2.37,4.66a7.24,7.24,0,0,1-6.61-3.1" transform="translate(0)"/></g></g></g><polygon class="cls-9" points="63.23 67.94 60.86 63.28 73.26 35.87 75.63 40.53 63.23 67.94"/><g class="cls-3"><g class="cls-10"><g class="cls-3"><path class="cls-6" d="M75.63,40.53l-2.37-4.66a6.19,6.19,0,0,0,.32-.85L76,39.68a5.47,5.47,0,0,1-.32.85" transform="translate(0)"/><path class="cls-11" d="M76,39.68,73.58,35a7.19,7.19,0,0,0,.2-.8l2.37,4.65a5.33,5.33,0,0,1-.2.81" transform="translate(0)"/><path class="cls-12" d="M76.15,38.87l-2.37-4.65c0-.25.08-.5.1-.75l2.37,4.65a5.9,5.9,0,0,1-.1.75" transform="translate(0)"/><path class="cls-13" d="M76.25,38.12l-2.37-4.65c0-.24,0-.49,0-.73l2.37,4.66a5.77,5.77,0,0,1,0,.72" transform="translate(0)"/><path class="cls-14" d="M76.27,37.4,73.9,32.74q0-.36-.06-.72l2.38,4.65c0,.24,0,.48,0,.73" transform="translate(0)"/><path class="cls-15" d="M76.22,36.67,73.84,32a6.54,6.54,0,0,0-.13-.75l2.38,4.66c0,.24.1.49.13.74" transform="translate(0)"/><path class="cls-16" d="M76.09,35.93l-2.38-4.66a5.36,5.36,0,0,0-.23-.78l2.38,4.65a7.15,7.15,0,0,1,.23.79" transform="translate(0)"/><path class="cls-17" d="M75.86,35.14l-2.38-4.65a6.5,6.5,0,0,0-.36-.86l2.37,4.66a9.1,9.1,0,0,1,.37.85" transform="translate(0)"/></g></g></g><g class="cls-3"><g class="cls-18"><g class="cls-3"><path class="cls-19" d="M75,33.48l-2.37-4.65a6.52,6.52,0,0,1,.48.8l2.37,4.66a6.63,6.63,0,0,0-.48-.81" transform="translate(0)"/></g></g></g><g class="cls-3"><g class="cls-20"><g class="cls-3"><path class="cls-5" d="M75.83,32.91l-2.37-4.65a7.71,7.71,0,0,1,.55.92l2.37,4.65a8,8,0,0,0-.55-.92" transform="translate(0)"/></g></g></g><polygon class="cls-7" points="4.62 47.06 2.25 42.4 19.24 67.1 21.62 71.76 4.62 47.06"/><g class="cls-3"><g class="cls-21"><g class="cls-3"><path class="cls-5" d="M4.16,46.27,1.78,41.61a7.83,7.83,0,0,0,.47.79l2.37,4.66a7,7,0,0,1-.46-.79" transform="translate(0)"/></g></g></g><g class="cls-3"><g class="cls-22"><g class="cls-3"><path class="cls-23" d="M4.16,46.27,1.78,41.61a8.25,8.25,0,0,1-.37-.86l2.38,4.66a5.87,5.87,0,0,0,.37.86" transform="translate(0)"/><path class="cls-24" d="M3.79,45.41,1.41,40.75A7.15,7.15,0,0,1,1.18,40l2.38,4.66a5.88,5.88,0,0,0,.23.79" transform="translate(0)"/><path class="cls-25" d="M3.56,44.62,1.18,40c-.05-.25-.1-.5-.13-.75l2.37,4.66a6.58,6.58,0,0,0,.14.75" transform="translate(0)"/><path class="cls-26" d="M3.42,43.87,1.05,39.21A6,6,0,0,1,1,38.48l2.37,4.66c0,.24,0,.49,0,.73" transform="translate(0)"/><path class="cls-27" d="M3.37,43.14,1,38.48a5.93,5.93,0,0,1,0-.73l2.37,4.66c0,.24,0,.48,0,.73" transform="translate(0)"/><path class="cls-28" d="M3.39,42.41,1,37.75a6.42,6.42,0,0,1,.1-.75l2.37,4.65a6.31,6.31,0,0,0-.1.76" transform="translate(0)"/><path class="cls-29" d="M3.49,41.65,1.12,37a5.33,5.33,0,0,1,.2-.81l2.37,4.66a7.19,7.19,0,0,0-.2.8" transform="translate(0)"/><path class="cls-30" d="M3.69,40.85,1.32,36.19a7.13,7.13,0,0,1,.31-.84L4,40a7.63,7.63,0,0,0-.31.84" transform="translate(0)"/></g></g></g><g class="cls-3"><g class="cls-31"><g class="cls-3"><path class="cls-17" d="M3.27,46.72.89,42.07a9.32,9.32,0,0,1-.42-1l2.38,4.65a5.67,5.67,0,0,0,.42,1" transform="translate(0)"/><path class="cls-16" d="M2.85,45.74.47,41.09c-.1-.3-.19-.6-.26-.9l2.37,4.65a6.69,6.69,0,0,0,.27.9" transform="translate(0)"/><path class="cls-15" d="M2.58,44.84.21,40.19c-.06-.28-.11-.57-.15-.85L2.43,44c0,.29.09.57.15.85" transform="translate(0)"/><path class="cls-14" d="M2.43,44,.06,39.34c0-.28,0-.55-.06-.83l2.37,4.66c0,.27,0,.55.06.82" transform="translate(0)"/><path class="cls-13" d="M2.37,43.17,0,38.51a7.77,7.77,0,0,1,0-.83L2.4,42.34c0,.28,0,.55,0,.83" transform="translate(0)"/><path class="cls-12" d="M2.4,42.34,0,37.68a6.39,6.39,0,0,1,.11-.85l2.37,4.66a8.24,8.24,0,0,0-.11.85" transform="translate(0)"/><path class="cls-11" d="M2.51,41.49.14,36.83a7.09,7.09,0,0,1,.22-.91l2.37,4.65c-.09.31-.16.61-.22.92" transform="translate(0)"/><path class="cls-6" d="M2.73,40.57.36,35.92a7.15,7.15,0,0,1,.37-1L3.1,39.61a8.63,8.63,0,0,0-.37,1" transform="translate(0)"/></g></g></g><polygon class="cls-32" points="58.02 8.78 55.65 4.12 72.64 28.83 75.01 33.48 58.02 8.78"/><polygon class="cls-7" points="58.85 8.21 56.48 3.55 73.46 28.26 75.83 32.91 58.85 8.21"/><g class="cls-3"><g class="cls-33"><g class="cls-3"><path class="cls-19" d="M51.4,5.68,49,1a7.22,7.22,0,0,1,6.62,3.09L58,8.78a7.24,7.24,0,0,0-6.62-3.1" transform="translate(0)"/></g></g></g><g class="cls-3"><g class="cls-34"><g class="cls-3"><path class="cls-5" d="M51.32,4.69,49,0a8.27,8.27,0,0,1,7.53,3.52l2.37,4.66a8.24,8.24,0,0,0-7.53-3.52" transform="translate(0)"/></g></g></g><polygon class="cls-35" points="4 40.01 1.63 35.35 14.04 7.95 16.41 12.6 4 40.01"/><polygon class="cls-9" points="3.1 39.61 0.73 34.95 13.12 7.54 15.5 12.19 3.1 39.61"/><polygon class="cls-32" points="22.38 8.36 20.01 3.7 49.03 1.03 51.4 5.68 22.38 8.36"/><g class="cls-3"><g class="cls-36"><g class="cls-3"><path class="cls-30" d="M16.41,12.6,14,7.94l.05-.1,2.37,4.66-.05.1" transform="translate(0)"/><path class="cls-19" d="M16.46,12.5,14.09,7.84a7.22,7.22,0,0,1,3.28-3.38l2.37,4.66a7.22,7.22,0,0,0-3.28,3.38" transform="translate(0)"/></g></g></g><g class="cls-3"><g class="cls-37"><g class="cls-3"><path class="cls-19" d="M19.74,9.12,17.37,4.46A7.19,7.19,0,0,1,20,3.7l2.37,4.66a7.19,7.19,0,0,0-2.64.76" transform="translate(0)"/></g></g></g><path class="cls-38" d="M19.74,9.12a7.19,7.19,0,0,1,2.64-.76l29-2.68A7.24,7.24,0,0,1,58,8.78l17,24.7a7.22,7.22,0,0,1,.62,7.05L63.23,67.94a7.25,7.25,0,0,1-6,4.24l-29,2.68a7.24,7.24,0,0,1-6.61-3.1l-17-24.7A7.28,7.28,0,0,1,4,40L16.41,12.6A7.31,7.31,0,0,1,19.74,9.12Z" transform="translate(0)"/><polygon class="cls-7" points="22.29 7.37 19.92 2.71 48.95 0.03 51.32 4.69 22.29 7.37"/><path class="cls-39" d="M75.83,32.91a8.21,8.21,0,0,1,.71,8L64.15,68.34a8.29,8.29,0,0,1-3.79,4,8,8,0,0,1-3,.87l-29,2.68a8.27,8.27,0,0,1-7.53-3.52l-17-24.7a8.24,8.24,0,0,1-.7-8L15.5,12.19a8.28,8.28,0,0,1,3.79-4,8.11,8.11,0,0,1,3-.86l29-2.68a8.24,8.24,0,0,1,7.53,3.52Zm-.2,7.62A7.22,7.22,0,0,0,75,33.48L58,8.78a7.24,7.24,0,0,0-6.62-3.1l-29,2.68a7.19,7.19,0,0,0-2.64.76,7.31,7.31,0,0,0-3.33,3.48L4,40a7.28,7.28,0,0,0,.62,7.05l17,24.7a7.24,7.24,0,0,0,6.61,3.1l29-2.68a7.25,7.25,0,0,0,6-4.24l12.4-27.41" transform="translate(0)"/><g class="cls-3"><g class="cls-40"><g class="cls-3"><path class="cls-6" d="M15.5,12.19,13.12,7.54l.05-.1,2.37,4.66,0,.09" transform="translate(0)"/><path class="cls-5" d="M15.54,12.1,13.17,7.44a8.24,8.24,0,0,1,3.74-3.86,8,8,0,0,1,3-.87l2.37,4.66a8.11,8.11,0,0,0-3,.86,8.37,8.37,0,0,0-3.75,3.87" transform="translate(0)"/></g></g></g></g></g><path class="cls-41" d="M22.48,69.63c-.41-5.83-.71-12.76-.71-20.35,0-13.75,1.46-23.53,4.23-30S32.7,8.81,38.19,8.81s10.07,3.74,13.2,10.67,4.88,18.36,4.88,32.77c0,6.82-.15,12.54-.4,17.38Zm30-9.57c.2-2.42.26-5.94.26-9.68,0-20.45-5.24-31.56-14.41-31.56-8-.11-13.09,9.79-13.09,30,0,4.95.2,8.69.45,11.22Z" transform="translate(0)"/><text class="cls-42" transform="translate(50.82 64.3) rotate(-90) scale(1.8 1)">B</text></g></g></svg>